<svg width="1460" height="564" viewBox="0 0 1460 564" fill="none" xmlns="http://www.w3.org/2000/svg">
<g opacity="0.4">
<mask id="mask0_33_9" style="mask-type:alpha" maskUnits="userSpaceOnUse" x="0" y="0" width="1460" height="564">
<rect width="1460" height="564" fill="#D9D9D9"/>
</mask>
<g mask="url(#mask0_33_9)">
<rect width="1460" height="564" fill="white"/>
<path d="M-521 266.597L546.161 1381.24" stroke="#64748B"/>
<path d="M55.4358 -135.9L1121.87 977.986" stroke="#64748B"/>
<path d="M-297.535 -2.28537L768.902 1111.6" stroke="#64748B"/>
<path d="M299.158 -383.623L1365.6 730.262" stroke="#64748B"/>
<path d="M-464.229 200.321L602.208 1314.21" stroke="#64748B"/>
<path d="M112.206 -202.176L1178.64 911.71" stroke="#64748B"/>
<path d="M-240.042 -67.8058L825.672 1045.32" stroke="#64748B"/>
<path d="M353.035 -452.922L1420.92 662.475" stroke="#64748B"/>
<path d="M-390.095 152.182L676.342 1266.07" stroke="#64748B"/>
<path d="M186.34 -250.315L1252.78 863.57" stroke="#64748B"/>
<path d="M-165.907 -115.945L899.807 997.184" stroke="#64748B"/>
<path d="M428.616 -499.55L1495.78 615.091" stroke="#64748B"/>
<path d="M-315.96 104.042L750.477 1217.93" stroke="#64748B"/>
<path d="M260.475 -298.455L1326.91 815.43" stroke="#64748B"/>
<path d="M-92.4961 -164.84L973.941 949.045" stroke="#64748B"/>
<path d="M503.474 -546.934L1570.63 567.707" stroke="#64748B"/>
<path d="M557.351 -616.233L1624.51 498.408" stroke="#64748B"/>
<path d="M802.521 -862.445L1868.96 251.44" stroke="#64748B"/>
<path d="M614.121 -682.509L1680.56 431.376" stroke="#64748B"/>
<path d="M859.291 -928.721L1925.73 185.164" stroke="#64748B"/>
<path d="M688.255 -730.648L1754.69 383.237" stroke="#64748B"/>
<path d="M933.426 -976.86L1999.86 137.025" stroke="#64748B"/>
<path d="M762.39 -778.788L1828.83 335.097" stroke="#64748B"/>
<path d="M1007.56 -1025L2074 88.8853" stroke="#64748B"/>
</g>
</g>
</svg>
