<svg width="18" height="20" viewBox="0 0 18 20" fill="none" xmlns="http://www.w3.org/2000/svg">
<path d="M3.68596 13H14.315M3.51496 11H14.486M4.74296 5H13.257M4.74296 5C4.13796 5 3.83596 5 3.61296 5.12C3.41713 5.2268 3.26235 5.39565 3.17296 5.6C3.07196 5.833 3.09696 6.134 3.14896 6.736L3.94896 16.073C4.03796 17.105 4.08196 17.623 4.31096 18.013C4.51314 18.3572 4.8137 18.633 5.17396 18.805C5.58396 19 6.10096 19 7.13796 19H10.863C11.899 19 12.417 19 12.826 18.805C13.1862 18.633 13.4868 18.3572 13.689 18.013C13.919 17.623 13.963 17.106 14.051 16.073L14.851 6.735C14.903 6.133 14.929 5.833 14.828 5.601C14.7389 5.39639 14.5841 5.22743 14.388 5.121C14.165 5 13.861 5 13.257 5M4.74296 5H3.74996C2.84996 5 2.39996 5 2.13896 4.812C2.02468 4.72967 1.92909 4.62413 1.85843 4.5023C1.78778 4.38046 1.74366 4.24507 1.72896 4.105C1.69496 3.785 1.91896 3.393 2.36596 2.611C2.69996 2.026 2.86696 1.733 3.10196 1.52C3.31166 1.32942 3.55946 1.18558 3.82896 1.098C4.12896 1 4.46696 1 5.13996 1H12.86C13.534 1 13.87 1 14.172 1.098C14.442 1.185 14.689 1.329 14.898 1.52C15.133 1.733 15.3 2.025 15.634 2.61C16.081 3.392 16.305 3.784 16.271 4.105C16.2563 4.24507 16.2121 4.38046 16.1415 4.5023C16.0708 4.62413 15.9752 4.72967 15.861 4.812C15.602 5 15.15 5 14.252 5H13.257" stroke="#F97316" stroke-width="2" stroke-linecap="round" stroke-linejoin="round"/>
</svg>
