<svg width="24" height="20" viewBox="0 0 24 20" fill="none" xmlns="http://www.w3.org/2000/svg">
<path d="M21.9997 9.60131C21.0257 9.43654 20.0112 9.3286 19.1865 9.29938L19.0405 9.29451C19.0745 9.22146 19.0997 9.17276 19.1078 9.16465C19.1257 9.15004 19.1403 9.08835 19.1419 9.02829C19.1419 8.99583 19.1565 8.88707 19.1792 8.74422C19.4033 8.75234 19.6987 8.75883 20.0233 8.76045C21.27 8.771 22.5751 8.87165 23.4704 9.02992C24.0036 9.12407 24.1797 9.12082 23.7869 9.02505C23.3876 8.92765 22.2058 8.78643 21.2643 8.72474C20.5739 8.68318 19.8822 8.6664 19.1906 8.67442C19.2068 8.58189 19.2231 8.47963 19.2426 8.37411C19.3172 7.96505 19.3424 7.55436 19.344 6.73705C19.3456 5.4709 19.2775 5.12189 18.8651 4.28266C18.7094 3.95933 18.5115 3.65803 18.2767 3.38662C18.4772 2.79412 18.4715 1.8786 18.2645 1.07508C18.0941 0.416032 18.0332 0.373827 17.4367 0.500442C16.9294 0.60839 16.5236 0.755296 16.0033 1.01745C15.7566 1.14163 15.4173 1.33399 15.1714 1.48658C14.5302 1.26176 13.8671 1.11323 13.1585 1.03206C12.4419 0.9509 10.683 0.996351 10.0581 1.1116C9.44936 1.22523 8.89907 1.36321 8.40235 1.52554C8.15318 1.37295 7.79363 1.16598 7.53553 1.03612C7.01283 0.773152 6.60702 0.627058 6.09893 0.51911C5.50319 0.391683 5.44151 0.4347 5.27107 1.09375C5.06004 1.90782 5.05842 2.83876 5.26701 3.42963C5.29136 3.497 5.30597 3.54489 5.31165 3.58222C4.46592 4.64709 4.18997 5.83857 4.3734 7.50242C4.4221 7.93502 4.49514 8.33272 4.59903 8.69715C4.0593 8.6939 3.2923 8.71338 2.73714 8.74909C1.79402 8.81159 0.612282 8.952 0.212957 9.04939C-0.179063 9.14436 -0.00456115 9.14679 0.529495 9.05426C1.42473 8.89681 2.73065 8.79454 3.97732 8.78642C4.21269 8.7848 4.43184 8.77993 4.62176 8.77506C4.67857 8.96742 4.7435 9.15085 4.81655 9.32535H4.81249C3.98868 9.35457 2.97495 9.46333 2.00018 9.62566C1.26971 9.74902 0.190231 9.99414 0.0636162 10.0639C-0.0694919 10.1386 0.0392671 10.1224 0.604977 9.97872C1.63819 9.71737 2.98144 9.51608 4.6453 9.37811L4.83197 9.36187C5.18909 10.1897 5.73857 10.8228 6.51611 11.3179C6.99173 11.6198 7.75386 11.9307 8.13776 11.9794C8.24327 11.9924 8.55007 12.0557 8.81953 12.119C9.08981 12.1823 9.61818 12.2773 9.99316 12.3316H10.0013L9.9818 12.3446C9.52728 12.58 9.23184 12.9485 9.03218 13.5272C8.9429 13.554 8.83252 13.5905 8.7124 13.6327C8.28223 13.7788 8.11585 13.808 7.68162 13.8113C7.22954 13.8145 7.12159 13.795 6.85375 13.6684C6.43842 13.4642 6.0907 13.1447 5.8522 12.748C5.44638 12.0776 4.74269 11.6036 4.15588 11.6036C3.65591 11.6036 3.56095 11.8065 3.92294 12.1028C4.46836 12.5492 4.8758 13.0037 5.043 13.3511L5.36522 14.0198C5.4545 14.2041 5.6428 14.4541 5.82298 14.627C6.24665 15.0311 6.65572 15.2243 7.26607 15.3152C7.67513 15.3753 7.77577 15.3753 8.25869 15.3136C8.49163 15.2852 8.68886 15.2519 8.86417 15.2105V15.9037C8.86417 17.337 8.84794 17.798 8.79113 17.9327C8.68318 18.1892 8.44212 18.4522 8.20918 18.5715C7.97625 18.6908 7.90401 18.8215 8.00222 18.9416C8.05741 19.0065 8.16211 19.0179 8.51355 18.9952C9.18071 18.9546 9.65227 18.707 9.89333 18.2728C9.96962 18.1324 9.98748 17.8508 10.0118 16.3898C10.0378 14.8055 10.0492 14.6529 10.1522 14.4257C10.2139 14.2917 10.304 14.1457 10.3551 14.1059C10.4387 14.0361 10.4444 14.1741 10.4444 16.07C10.4444 18.1624 10.4225 18.4157 10.2131 18.8174C10.166 18.9091 10.0768 19.0284 10.0143 19.0853C9.90469 19.1851 9.85843 19.4408 9.93472 19.5179C10.0605 19.6429 10.6912 19.4464 11.0353 19.1754C11.6213 18.7111 11.6911 18.3272 11.696 15.5555L11.6984 13.9281L11.877 13.9444L12.0539 13.9606L12.0831 16.0871C12.1156 18.483 12.1205 18.5179 12.5279 18.9806C12.7592 19.2419 12.9922 19.3864 13.372 19.5C13.8785 19.6518 14.031 19.4164 13.6902 19.0082C13.3192 18.5634 13.3006 18.3937 13.3217 15.7657C13.3355 14.0807 13.3355 14.0807 13.4434 14.1789C13.6731 14.3867 13.7169 14.7276 13.7169 16.3078C13.7169 18.2704 13.7738 18.4571 14.4661 18.7996C14.7907 18.9578 14.88 18.9781 15.2956 18.9781C15.7371 18.9806 15.7639 18.9741 15.7801 18.8588C15.7939 18.7655 15.7395 18.7022 15.5334 18.5764C15.2789 18.4261 15.0779 18.1999 14.9587 17.9295C14.9141 17.8272 14.8841 17.1519 14.8638 15.7624C14.8346 13.8194 14.8281 13.7309 14.7071 13.4265C14.5448 13.0175 14.2948 12.6944 13.9791 12.4802C13.8979 12.4266 13.8151 12.3828 13.7088 12.3487C13.8387 12.3357 13.9661 12.3219 14.0887 12.3041C15.3646 12.1336 16.039 11.9924 16.5804 11.783C17.7248 11.3423 18.4999 10.6102 18.9195 9.57209C18.9569 9.47956 18.9942 9.3919 19.025 9.32048L19.3497 9.34808C21.0135 9.48849 22.3568 9.68896 23.39 9.95112C23.9565 10.0956 24.0637 10.1134 23.9322 10.0372C23.8088 9.96817 22.7293 9.72386 21.9989 9.60131H21.9997ZM17.1185 9.57533C16.9294 9.99089 16.4018 10.5249 15.9757 10.7343C15.5553 10.9421 14.8962 11.0996 14.1495 11.1759C13.6382 11.2278 10.7918 11.2432 10.3219 11.197C8.76597 11.0444 7.89508 10.7449 7.25146 10.1451C6.64273 9.57533 6.35866 8.80185 6.40736 7.8498C6.43982 7.25406 6.58348 6.87989 6.95927 6.42538C7.30015 6.01144 7.66052 5.75578 8.08419 5.62592C8.43969 5.51716 9.5289 5.50742 10.9915 5.60157C11.6383 5.64215 12.1732 5.64215 12.8193 5.60157C14.35 5.50417 15.3719 5.51554 15.7493 5.63241C16.3418 5.81584 16.8831 6.30931 17.2078 6.96674C17.3539 7.26055 17.3831 7.38554 17.4042 7.83925C17.4334 8.46421 17.3255 9.12731 17.1201 9.57452L17.1185 9.57533ZM9.39985 6.89207C8.52897 6.73948 8.03144 8.23127 8.69941 8.99177C9.01595 9.35213 9.29759 9.41138 9.64903 9.19224C9.97611 8.98933 10.1522 8.60786 10.1522 8.11439C10.1522 7.45534 9.85356 6.97161 9.39904 6.89045L9.39985 6.89207ZM14.686 6.98135C13.8151 6.82876 13.3168 8.31811 13.9848 9.08024C14.3038 9.44141 14.5854 9.50229 14.9376 9.28071C15.2623 9.0778 15.4409 8.69633 15.4409 8.20286C15.4409 7.54706 15.1405 7.0617 14.686 6.98135ZM12.3437 9.91297C12.3242 9.97304 12.2333 10.0623 12.1407 10.1102C11.9094 10.2295 11.743 10.1881 11.4971 9.96411C11.3453 9.82775 11.2764 9.75552 11.2293 9.89918C11.1871 10.0323 11.4565 10.2993 11.6659 10.3813C11.8575 10.4584 11.9947 10.4608 12.2016 10.3732C12.4086 10.288 12.5888 10.0566 12.5888 9.90648C12.5888 9.76688 12.3883 9.77337 12.3428 9.9146L12.3437 9.91297ZM12.0856 9.44628C12.2179 9.3286 12.2479 9.08916 12.1213 8.96093C11.9947 8.83269 11.7374 8.85298 11.6367 8.99583C11.519 9.16302 11.5815 9.29045 11.6651 9.42599C11.795 9.52664 11.9695 9.54774 12.0847 9.44547L12.0856 9.44628Z" fill="#0F172A"/>
</svg>
