<svg width="201" height="216" viewBox="0 0 201 216" fill="none" xmlns="http://www.w3.org/2000/svg">
<rect x="7.5" y="12.5" width="79" height="202" rx="8.5" fill="#0F172A" stroke="black" stroke-width="3"/>
<rect x="1.5" y="5.5" width="79" height="202" rx="8.5" fill="white" stroke="black" stroke-width="3"/>
<rect x="100.5" y="115.5" width="99" height="99" rx="8.5" fill="#0F172A" stroke="white" stroke-width="3"/>
<mask id="mask0_91_62" style="mask-type:alpha" maskUnits="userSpaceOnUse" x="91" y="107" width="102" height="102">
<rect x="92.5" y="108.5" width="99" height="99" rx="8.5" fill="#D9D9D9" stroke="black" stroke-width="3"/>
</mask>
<g mask="url(#mask0_91_62)">
<rect x="92.5" y="108.5" width="99" height="99" rx="8.5" fill="#1E293B" stroke="white" stroke-width="3"/>
<path d="M158.908 88.5969L46 171.931" stroke="white" stroke-width="3"/>
<path d="M174.816 101.025L61.908 184.359" stroke="white" stroke-width="3"/>
<path d="M190.724 113.094L77.8159 196.428" stroke="white" stroke-width="3"/>
<path d="M206.632 125.162L93.7239 208.497" stroke="white" stroke-width="3"/>
<path d="M222.54 137.231L109.632 220.566" stroke="white" stroke-width="3"/>
<path d="M238.448 149.3L125.54 232.634" stroke="white" stroke-width="3"/>
</g>
<circle cx="150" cy="51" r="45.5" fill="#0F172A" stroke="black" stroke-width="3"/>
<mask id="mask1_91_62" style="mask-type:alpha" maskUnits="userSpaceOnUse" x="95" y="0" width="94" height="94">
<circle cx="142" cy="47" r="45.5" fill="#D9D9D9" stroke="black" stroke-width="3"/>
</mask>
<g mask="url(#mask1_91_62)">
<circle cx="142" cy="47" r="45.5" fill="#CBD5E1" stroke="black" stroke-width="3"/>
</g>
</svg>
